<svg xmlns="http://www.w3.org/2000/svg" viewBox="0 0 1920 1080" preserveAspectRatio="xMidYMid slice" width="1920" height="1080">

  <defs>
    <radialGradient id="glow" cx="74%" cy="16%" r="90%">
      <stop offset="0%" stop-color="#27c93f" stop-opacity="0.85"/>
      <stop offset="42%" stop-color="#27c93f" stop-opacity="0.32"/>
      <stop offset="100%" stop-color="#0c0814" stop-opacity="0"/>
    </radialGradient>
    <linearGradient id="floor" x1="0" y1="0" x2="0" y2="1">
      <stop offset="0%" stop-color="#0c0814" stop-opacity="0"/>
      <stop offset="100%" stop-color="#27c93f" stop-opacity="0.22"/>
    </linearGradient>
  </defs>
<rect width="1920" height="1080" fill="#0c0814"/>
<rect width="1920" height="1080" fill="url(#glow)"/>
<rect y="648" width="1920" height="432" fill="url(#floor)"/>
<defs><marker id="arwb" markerWidth="14" markerHeight="14" refX="7" refY="7" orient="auto"><path d="M2 2 L12 7 L2 12 Z" fill="#27c93f"/></marker></defs><path d="M 1382.3999999999999 885.5999999999999 L 1382.3999999999999 194.4" stroke="#27c93f" stroke-opacity="0.85" stroke-width="7" stroke-linecap="round" marker-end="url(#arwb)"/><text x="883.2" y="669.6" font-family="ui-rounded, system-ui, sans-serif" font-size="460" font-weight="700" fill="#27c93f" fill-opacity="0.22" text-anchor="middle">$</text>
<circle cx="663" cy="308" r="4" fill="#27c93f" fill-opacity="0.26"/><circle cx="148" cy="192" r="3" fill="#27c93f" fill-opacity="0.24"/><circle cx="1863" cy="1039" r="2" fill="#27c93f" fill-opacity="0.09"/><circle cx="888" cy="856" r="1" fill="#27c93f" fill-opacity="0.14"/><circle cx="1128" cy="869" r="1" fill="#27c93f" fill-opacity="0.30"/><circle cx="253" cy="457" r="1" fill="#27c93f" fill-opacity="0.24"/><circle cx="812" cy="101" r="2" fill="#27c93f" fill-opacity="0.09"/><circle cx="1758" cy="272" r="3" fill="#27c93f" fill-opacity="0.19"/><circle cx="1107" cy="241" r="3" fill="#27c93f" fill-opacity="0.23"/><circle cx="1396" cy="370" r="1" fill="#27c93f" fill-opacity="0.24"/><circle cx="1308" cy="384" r="3" fill="#27c93f" fill-opacity="0.11"/><circle cx="1458" cy="128" r="1" fill="#27c93f" fill-opacity="0.25"/><circle cx="1016" cy="875" r="3" fill="#27c93f" fill-opacity="0.21"/><circle cx="1891" cy="928" r="3" fill="#27c93f" fill-opacity="0.16"/><circle cx="1626" cy="368" r="2" fill="#27c93f" fill-opacity="0.10"/><circle cx="614" cy="1075" r="4" fill="#27c93f" fill-opacity="0.32"/><circle cx="1493" cy="919" r="3" fill="#27c93f" fill-opacity="0.24"/><circle cx="149" cy="241" r="4" fill="#27c93f" fill-opacity="0.12"/><circle cx="700" cy="311" r="4" fill="#27c93f" fill-opacity="0.19"/><circle cx="1368" cy="158" r="3" fill="#27c93f" fill-opacity="0.17"/><circle cx="717" cy="1017" r="4" fill="#27c93f" fill-opacity="0.10"/><circle cx="191" cy="552" r="4" fill="#27c93f" fill-opacity="0.27"/><circle cx="133" cy="124" r="3" fill="#27c93f" fill-opacity="0.25"/><circle cx="1395" cy="912" r="3" fill="#27c93f" fill-opacity="0.27"/><circle cx="1816" cy="710" r="1" fill="#27c93f" fill-opacity="0.33"/><circle cx="727" cy="344" r="1" fill="#27c93f" fill-opacity="0.21"/><circle cx="446" cy="588" r="2" fill="#27c93f" fill-opacity="0.28"/><circle cx="814" cy="800" r="4" fill="#27c93f" fill-opacity="0.10"/><circle cx="919" cy="822" r="3" fill="#27c93f" fill-opacity="0.32"/><circle cx="1677" cy="881" r="3" fill="#27c93f" fill-opacity="0.27"/><circle cx="734" cy="779" r="2" fill="#27c93f" fill-opacity="0.12"/><circle cx="360" cy="309" r="2" fill="#27c93f" fill-opacity="0.26"/><circle cx="24" cy="993" r="2" fill="#27c93f" fill-opacity="0.15"/><circle cx="8" cy="298" r="4" fill="#27c93f" fill-opacity="0.22"/><circle cx="1248" cy="652" r="2" fill="#27c93f" fill-opacity="0.27"/><circle cx="1055" cy="110" r="4" fill="#27c93f" fill-opacity="0.32"/><circle cx="1597" cy="803" r="4" fill="#27c93f" fill-opacity="0.19"/><circle cx="212" cy="986" r="4" fill="#27c93f" fill-opacity="0.10"/><circle cx="137" cy="427" r="4" fill="#27c93f" fill-opacity="0.12"/><circle cx="696" cy="107" r="1" fill="#27c93f" fill-opacity="0.08"/><circle cx="309" cy="207" r="3" fill="#27c93f" fill-opacity="0.25"/><circle cx="144" cy="425" r="4" fill="#27c93f" fill-opacity="0.12"/><circle cx="516" cy="711" r="3" fill="#27c93f" fill-opacity="0.21"/><circle cx="236" cy="999" r="4" fill="#27c93f" fill-opacity="0.21"/><circle cx="638" cy="175" r="2" fill="#27c93f" fill-opacity="0.11"/><circle cx="701" cy="542" r="4" fill="#27c93f" fill-opacity="0.30"/><circle cx="330" cy="1057" r="1" fill="#27c93f" fill-opacity="0.14"/><circle cx="1081" cy="740" r="2" fill="#27c93f" fill-opacity="0.27"/>
</svg>